<?xml version="1.0" standalone="no"?>
<!DOCTYPE svg PUBLIC "-//W3C//DTD SVG 20010904//EN"
 "http://www.w3.org/TR/2001/REC-SVG-20010904/DTD/svg10.dtd">
<svg version="1.0" xmlns="http://www.w3.org/2000/svg"
 width="200.000000pt" height="200.000000pt" viewBox="0 0 200.000000 200.000000"
 preserveAspectRatio="xMidYMid meet">
<metadata>
Created by potrace 1.11, written by Peter Selinger 2001-2013
</metadata>
<g transform="translate(0.000000,200.000000) scale(0.100000,-0.100000)"
fill="#000000" stroke="none">
<path d="M0 1000 l0 -1000 421 0 420 0 77 78 c83 84 130 154 164 248 30 80 32
253 5 332 -43 123 -146 229 -260 269 -78 27 -226 25 -291 -5 -74 -34 -113 -68
-141 -122 -53 -105 -20 -266 65 -311 42 -23 93 -24 114 -3 18 17 19 25 16 110
-3 100 37 154 116 154 120 0 190 -148 130 -275 -30 -63 -65 -97 -141 -132 -51
-24 -72 -28 -145 -28 -68 0 -94 5 -132 24 -124 61 -198 191 -198 351 0 222
143 398 380 467 41 11 128 17 345 23 257 6 297 9 356 28 130 43 209 135 209
245 0 105 -74 197 -159 197 -40 0 -57 -20 -77 -90 -9 -33 -27 -71 -40 -85 -20
-22 -32 -25 -86 -25 -111 0 -165 57 -156 167 6 70 41 120 109 158 51 28 60 30
164 30 91 0 120 -4 168 -23 152 -61 251 -200 264 -367 21 -269 -197 -493 -507
-521 -72 -7 -85 -15 -50 -34 33 -18 89 -110 117 -195 24 -71 27 -96 27 -225 1
-167 -11 -226 -74 -357 l-39 -83 414 0 415 0 0 1000 0 1000 -1000 0 -1000 0 0
-1000z"/>
</g>
</svg>
