<?xml version="1.0" encoding="UTF-8" standalone="no"?>
<!-- Created with Inkscape (http://www.inkscape.org/) -->

<svg
   xmlns:dc="http://purl.org/dc/elements/1.1/"
   xmlns:cc="http://creativecommons.org/ns#"
   xmlns:rdf="http://www.w3.org/1999/02/22-rdf-syntax-ns#"
   xmlns:svg="http://www.w3.org/2000/svg"
   xmlns="http://www.w3.org/2000/svg"
   xmlns:sodipodi="http://sodipodi.sourceforge.net/DTD/sodipodi-0.dtd"
   xmlns:inkscape="http://www.inkscape.org/namespaces/inkscape"
   width="14.723693mm"
   height="44.976109mm"
   viewBox="0 0 52.170565 159.36416"
   id="svg5261"
   version="1.1"
   inkscape:version="0.91 r13725"
   sodipodi:docname="angel1.svg">
  <defs
     id="defs5263" />
  <sodipodi:namedview
     id="base"
     pagecolor="#ffffff"
     bordercolor="#666666"
     borderopacity="1.0"
     inkscape:pageopacity="0.0"
     inkscape:pageshadow="2"
     inkscape:zoom="5.6"
     inkscape:cx="1.4186812"
     inkscape:cy="92.619276"
     inkscape:document-units="px"
     inkscape:current-layer="layer2"
     showgrid="false"
     fit-margin-top="0"
     fit-margin-left="0"
     fit-margin-right="0"
     fit-margin-bottom="0"
     inkscape:window-width="2495"
     inkscape:window-height="1416"
     inkscape:window-x="65"
     inkscape:window-y="24"
     inkscape:window-maximized="1" />
  <metadata
     id="metadata5266">
    <rdf:RDF>
      <cc:Work
         rdf:about="">
        <dc:format>image/svg+xml</dc:format>
        <dc:type
           rdf:resource="http://purl.org/dc/dcmitype/StillImage" />
        <dc:title></dc:title>
      </cc:Work>
    </rdf:RDF>
  </metadata>
  <g
     inkscape:groupmode="layer"
     id="layer2"
     inkscape:label="Ebene 2"
     style="display:inline">
    <path
       style="fill:#ffffff;fill-opacity:1;stroke:none;stroke-width:0;stroke-miterlimit:4;stroke-dasharray:none;stroke-opacity:1"
       d="m -0.35742188,0.078125 0,160.179685 53.39257788,0 0,-160.179685 -53.39257788,0 z M 18.730469,0.5859375 c 0.948051,0.0552142 2.061324,0.473955 3.347656,1.40625 3.430218,2.48612 7.058351,8.7743945 10.134766,15.8281245 2.937124,6.734361 4.636895,14.000936 5.417968,22.197266 0.562911,5.90701 0.368587,8.925442 -0.845703,1.888672 C 35.255638,33.04275 32.911464,26.195004 30.488281,20.089844 30.433724,19.953984 24.415841,6.6580956 22.273438,9.2910156 20.910089,10.966516 22.004664,21.256438 21.964844,24.642578 L 16.373047,16.65625 C 16.098381,15.35519 13.910915,5.2169921 15.345703,2.6425781 c 0.6861,-1.2310569 1.80468,-2.14866424 3.384766,-2.0566406 z M 5.5917969,9.65625 c 2.0641523,0.1089875 5.1476161,2.016398 9.5937501,6.806641 4.972168,6.090984 20.596876,30.430395 22.599609,33.634765 2.002732,3.20437 5.34045,6.052232 11.03711,1.201172 5.696661,-4.85106 2.580516,0.267191 -1.335938,6.275391 -3.916454,6.00819 -2.407405,12.994366 -1.779297,22.296875 0.845947,14.21208 -5.449852,32.932796 -9.390625,49.134766 -2.157664,8.87095 -7.789062,26.25781 -7.789062,26.25781 0,0 2.062213,-25.56902 4.011718,-38.23437 1.457695,-9.4702 4.93854,-16.49575 5.736329,-28.166019 0.590636,-8.63995 1.58146,-15.84447 0.666015,-23.90039 -0.890104,-7.8329 -5.518799,-15.85125 -9.746094,-22.832032 C 25.099735,35.36759 17.093493,23.433017 13.339844,19.134766 9.0989158,14.278539 8.9362835,15.22343 8.0546875,16.335938 c -1.556741,1.964488 -0.8643087,7.779969 1.2382813,18.380859 0.5154379,2.59875 6.4816322,27.866941 8.3652342,42.025391 1.81417,13.636554 2.762131,36.767822 2.806641,41.173832 0.04451,4.40601 -1.059793,27.91136 -2.439453,35.96679 -0.794893,4.64115 -1.175121,7.00409 -1.06836,4.40625 0.133515,-3.24887 2.317085,-28.98307 1.957031,-38.45117 C 18.583841,111.15425 17.164225,93.853085 15.265625,80.984375 13.806763,71.096208 11.407786,61.368255 9.328125,51.591797 7.164972,41.422846 5.4181966,34.160106 2.5253906,21.154297 1.4250293,15.796292 1.6511425,9.448183 5.5917969,9.65625 Z m 11.6250001,15.587891 5.628906,8.027343 c 1.348244,7.5734 8.023508,36.348281 7.724609,53.81836 0.187023,15.713656 -0.497807,26.316186 -3.65625,42.591796 -2.010081,11.02009 -2.309962,9.56655 -0.210937,-6.4043 1.37966,-9.4796 1.999154,-22.42445 1.958984,-24.833981 C 28.444357,85.383419 27.800273,80.933588 26.597656,72.261719 24.402437,56.432366 20.920757,40.253271 17.216797,25.244141 Z m 30.089844,12.361328 c 1.396933,-0.06665 3.126643,0.298324 3.943359,1.433593 1.228822,1.70811 1.173066,4.466177 0.160156,6.310547 -0.723877,1.31807 -2.363466,2.334266 -3.867187,2.322266 -1.790985,-0.0143 -3.778475,-1.229524 -4.5625,-2.839844 -0.799835,-1.64279 -0.467495,-3.959079 0.589843,-5.449219 0.798136,-1.12484 2.358661,-1.711643 3.736329,-1.777343 z"
       id="rect5869"
       inkscape:connector-curvature="0" />
  </g>
  <g
     inkscape:groupmode="layer"
     id="layer3"
     inkscape:label="Ebene 3"
     style="display:inline" />
  <g
     inkscape:label="Ebene 1"
     inkscape:groupmode="layer"
     id="layer1"
     transform="translate(-19.629003,-21.251551)"
     style="display:inline" />
</svg>
